<svg width="34" height="34" viewBox="0 0 34 34" fill="none" xmlns="http://www.w3.org/2000/svg">
<g id="&#240;&#159;&#166;&#134; icon &#34;help circle&#34;">
<path id="Vector" d="M17 32C25.2843 32 32 25.2843 32 17C32 8.71573 25.2843 2 17 2C8.71573 2 2 8.71573 2 17C2 25.2843 8.71573 32 17 32Z" stroke="#A2C27E" stroke-width="2.56" stroke-linecap="round" stroke-linejoin="round"/>
<path id="Vector_2" d="M12.6353 12.5C12.9879 11.4975 13.684 10.6521 14.6002 10.1137C15.5164 9.57521 16.5936 9.37838 17.641 9.55804C18.6884 9.7377 19.6385 10.2823 20.3229 11.0953C21.0073 11.9083 21.3818 12.9373 21.3803 14C21.3803 17 16.8803 18.5 16.8803 18.5" stroke="#A2C27E" stroke-width="2.56" stroke-linecap="round" stroke-linejoin="round"/>
<path id="Vector_3" d="M17 24.5H17.015" stroke="#A2C27E" stroke-width="2.56" stroke-linecap="round" stroke-linejoin="round"/>
</g>
</svg>
