<svg width="25" height="34" viewBox="0 0 25 34" fill="none" xmlns="http://www.w3.org/2000/svg">
<g id="&#240;&#159;&#166;&#134; icon &#34;pin destination&#34;">
<path id="Vector" d="M12.5 3.30761e-05C19.4002 0.00850521 24.9915 5.59991 25 12.4992V12.5C24.9324 15.3402 24.2458 18.0044 23.0706 20.3842L23.1198 20.2741C21.9253 22.7867 20.5783 24.9492 19.0212 26.9394L19.0792 26.8623C17.2751 29.2215 15.3586 31.309 13.2718 33.2129L13.2345 33.2464L12.5 33.8945L11.764 33.2509C9.64049 31.3122 7.72447 29.2233 6.00446 26.9764L5.92066 26.8623C4.42166 24.9492 3.07469 22.7867 1.97133 20.4851L1.88022 20.2742C0.754218 18.0045 0.0675785 15.3402 0.00046332 12.5226L0 12.5C0.00847213 5.59988 5.59988 0.00850523 12.4992 0H12.5L12.5 3.30761e-05ZM12.5 30.879C14.9627 28.5131 22.7652 20.3904 22.7652 12.5C22.7652 6.83072 18.1693 2.23486 12.5 2.23486C6.83075 2.23486 2.23486 6.83072 2.23486 12.5C2.23486 20.4023 10.0358 28.5146 12.5 30.879ZM12.5 7.12159C15.4704 7.12159 17.8784 9.52959 17.8784 12.5C17.8784 15.4704 15.4704 17.8784 12.5 17.8784C9.52959 17.8784 7.12155 15.4704 7.12155 12.5C7.12496 9.53095 9.53095 7.12496 12.4997 7.12159H12.5ZM12.5 15.6436C14.2362 15.6436 15.6437 14.2362 15.6437 12.5C15.6437 10.7638 14.2362 9.35638 12.5 9.35638C10.7638 9.35638 9.35641 10.7639 9.35641 12.5C9.35806 14.2355 10.7645 15.642 12.4998 15.6436H12.5Z" fill="#A2C27E"/>
</g>
</svg>
